<svg width="400" height="361" viewBox="0 0 400 361" fill="none" xmlns="http://www.w3.org/2000/svg">
<path d="M270.155 289.953C247.133 329.922 235.622 349.906 220.593 356.613C207.485 362.462 192.515 362.462 179.407 356.613C164.378 349.906 152.867 329.922 129.845 289.953L32.9823 121.794C9.9598 81.8258 -1.55146 61.8416 0.168118 45.443C1.66803 31.1395 9.15271 18.1456 20.7614 9.69189C34.0703 -3.19906e-05 57.0928 -2.99779e-05 103.138 -2.59525e-05L296.862 -9.01659e-06C342.907 -4.99121e-06 365.93 -2.97852e-06 379.239 9.69192C390.847 18.1456 398.332 31.1395 399.832 45.4431C401.552 61.8416 390.04 81.8258 367.018 121.794L270.155 289.953Z" fill="white"/>
</svg>
