<svg width="127" height="20" viewBox="0 0 127 20" fill="none" xmlns="http://www.w3.org/2000/svg">
<path d="M15.5339 16.0639C14.2101 18.2782 13.5482 19.3854 12.6841 19.7569C11.9304 20.081 11.0696 20.081 10.3159 19.7569C9.45175 19.3854 8.78985 18.2782 7.46606 16.0639L1.89648 6.74761C0.572685 4.53329 -0.089211 3.42613 0.00966473 2.51762C0.0959083 1.72518 0.526278 1.0053 1.19378 0.536948C1.95904 -6.30285e-07 3.28283 3.79197e-07 5.93041 6.10656e-07L17.0696 1.58447e-06C19.7172 1.81593e-06 21.041 1.03791e-06 21.8062 0.53695C22.4737 1.0053 22.9041 1.72518 22.9903 2.51762C23.0892 3.42613 22.4273 4.53329 21.1035 6.7476L15.5339 16.0639Z" fill="#1F1F1F"/>
<path d="M36.12 16C35.16 16 34.446 15.748 33.978 15.244C33.51 14.74 33.276 14.098 33.276 13.318V8.78199H30.756V6.712H32.394C32.79 6.712 33.072 6.63399 33.24 6.47799C33.408 6.32199 33.492 6.03399 33.492 5.61399V3.436H35.94V6.712H39.558V8.78199H35.94V13.93H39.558V16H36.12Z" fill="#1F1F1F"/>
<path d="M42.125 13.93H44.267V8.78199H42.125V6.712H46.931V9.34H47.057C47.141 9.004 47.255 8.68 47.399 8.368C47.555 8.044 47.747 7.76199 47.975 7.52199C48.215 7.26999 48.503 7.07199 48.839 6.92799C49.175 6.78399 49.571 6.712 50.027 6.712H50.909V9.16H48.929C48.269 9.16 47.771 9.35799 47.435 9.75399C47.099 10.138 46.931 10.612 46.931 11.176V13.93H49.991V16H42.125V13.93Z" fill="#1F1F1F"/>
<path d="M57.5619 5.52399C56.9619 5.52399 56.5419 5.40399 56.3019 5.16399C56.0739 4.91199 55.9599 4.61199 55.9599 4.264V3.74199C55.9599 3.38199 56.0739 3.082 56.3019 2.842C56.5419 2.60199 56.9619 2.48199 57.5619 2.48199C58.1619 2.48199 58.5759 2.60199 58.8039 2.842C59.0439 3.082 59.1639 3.38199 59.1639 3.74199V4.264C59.1639 4.61199 59.0439 4.91199 58.8039 5.16399C58.5759 5.40399 58.1619 5.52399 57.5619 5.52399ZM53.2779 13.93H56.2299V8.78199H53.2779V6.712H58.8939V13.93H61.6299V16H53.2779V13.93Z" fill="#1F1F1F"/>
<path d="M71.1449 16C70.5929 16 70.1489 15.862 69.8129 15.586C69.4769 15.298 69.2789 14.89 69.2189 14.362H69.1289C68.9609 14.974 68.6249 15.436 68.1209 15.748C67.6289 16.06 67.0229 16.216 66.3029 16.216C65.4029 16.216 64.6769 15.976 64.1249 15.496C63.5849 15.004 63.3149 14.32 63.3149 13.444C63.3149 12.472 63.6689 11.752 64.3769 11.284C65.0849 10.816 66.1229 10.582 67.4909 10.582H68.9849V10.114C68.9849 9.56199 68.8529 9.14799 68.5889 8.87199C68.3369 8.584 67.9049 8.43999 67.2929 8.43999C66.7289 8.43999 66.2729 8.548 65.9249 8.764C65.5769 8.98 65.2769 9.262 65.0249 9.60999L63.5669 8.314C63.8789 7.786 64.3649 7.35399 65.0249 7.01799C65.6969 6.67 66.5549 6.496 67.5989 6.496C68.8709 6.496 69.8609 6.78999 70.5689 7.37799C71.2889 7.95399 71.6489 8.82999 71.6489 10.006V14.074H72.6749V16H71.1449ZM67.3109 14.47C67.7789 14.47 68.1749 14.356 68.4989 14.128C68.8229 13.9 68.9849 13.57 68.9849 13.138V12.022H67.5629C66.4709 12.022 65.9249 12.388 65.9249 13.12V13.48C65.9249 13.804 66.0509 14.05 66.3029 14.218C66.5549 14.386 66.8909 14.47 67.3109 14.47Z" fill="#1F1F1F"/>
<path d="M74.3419 16V6.712H77.0059V8.40399H77.1139C77.2219 8.13999 77.3539 7.89399 77.5099 7.66599C77.6659 7.43799 77.8519 7.23999 78.0679 7.07199C78.2959 6.89199 78.5539 6.75399 78.8419 6.65799C79.1419 6.54999 79.4779 6.496 79.8499 6.496C80.2939 6.496 80.7019 6.574 81.0739 6.72999C81.4459 6.874 81.7639 7.096 82.0279 7.396C82.2919 7.696 82.4959 8.06199 82.6399 8.49399C82.7959 8.92599 82.8739 9.424 82.8739 9.988V16H80.2099V10.348C80.2099 9.14799 79.6879 8.54799 78.6439 8.54799C78.4399 8.54799 78.2359 8.57799 78.0319 8.63799C77.8399 8.68599 77.6659 8.76999 77.5099 8.88999C77.3539 8.99799 77.2279 9.136 77.1319 9.304C77.0479 9.472 77.0059 9.67 77.0059 9.89799V16H74.3419Z" fill="#1F1F1F"/>
<path d="M94.4589 16.936C94.4589 17.92 94.0449 18.646 93.2169 19.114C92.3889 19.582 91.0869 19.816 89.3109 19.816C88.4229 19.816 87.6909 19.762 87.1149 19.654C86.5389 19.558 86.0769 19.414 85.7289 19.222C85.3929 19.03 85.1529 18.802 85.0089 18.538C84.8769 18.274 84.8109 17.986 84.8109 17.674C84.8109 17.146 84.9669 16.744 85.2789 16.468C85.5909 16.204 86.0289 16 86.5929 15.856V15.748C86.1969 15.628 85.8789 15.46 85.6389 15.244C85.4109 15.016 85.2969 14.698 85.2969 14.29C85.2969 13.834 85.4469 13.498 85.7469 13.282C86.0589 13.066 86.4669 12.898 86.9709 12.778V12.67C86.4189 12.406 85.9869 12.034 85.6749 11.554C85.3749 11.074 85.2249 10.492 85.2249 9.80799C85.2249 9.26799 85.3209 8.79399 85.5129 8.38599C85.7049 7.96599 85.9749 7.61799 86.3229 7.34199C86.6829 7.06599 87.1089 6.856 87.6009 6.712C88.0929 6.568 88.6449 6.496 89.2569 6.496C89.8449 6.496 90.3909 6.56199 90.8949 6.69399V6.18999C90.8949 5.82999 91.0209 5.52999 91.2729 5.28999C91.5249 5.04999 91.8729 4.93 92.3169 4.93H93.9549V6.87399H91.7229V7.03599C92.2269 7.29999 92.6169 7.666 92.8929 8.134C93.1809 8.58999 93.3249 9.14799 93.3249 9.80799C93.3249 10.348 93.2289 10.822 93.0369 11.23C92.8449 11.638 92.5689 11.986 92.2089 12.274C91.8489 12.55 91.4169 12.76 90.9129 12.904C90.4209 13.048 89.8689 13.12 89.2569 13.12C88.9809 13.12 88.7169 13.108 88.4649 13.084C88.2129 13.048 87.9729 13 87.7449 12.94C87.6129 13.012 87.4989 13.102 87.4029 13.21C87.3189 13.318 87.2769 13.456 87.2769 13.624C87.2769 13.768 87.3129 13.882 87.3849 13.966C87.4569 14.05 87.5529 14.116 87.6729 14.164C87.8049 14.2 87.9549 14.224 88.1229 14.236C88.2909 14.248 88.4649 14.254 88.6449 14.254H90.7689C91.4289 14.254 91.9929 14.32 92.4609 14.452C92.9289 14.584 93.3129 14.77 93.6129 15.01C93.9129 15.25 94.1289 15.532 94.2609 15.856C94.3929 16.18 94.4589 16.54 94.4589 16.936ZM91.9389 17.134C91.9389 16.894 91.8429 16.702 91.6509 16.558C91.4589 16.426 91.0929 16.36 90.5529 16.36H87.3669C87.1269 16.564 87.0069 16.816 87.0069 17.116C87.0069 17.404 87.1269 17.638 87.3669 17.818C87.6189 18.01 88.0389 18.106 88.6269 18.106H90.1929C90.8049 18.106 91.2489 18.022 91.5249 17.854C91.8009 17.686 91.9389 17.446 91.9389 17.134ZM89.2569 11.428C89.7969 11.428 90.1869 11.296 90.4269 11.032C90.6789 10.768 90.8049 10.432 90.8049 10.024V9.592C90.8049 9.184 90.6789 8.848 90.4269 8.58399C90.1869 8.32 89.7969 8.18799 89.2569 8.18799C88.7289 8.18799 88.3449 8.32 88.1049 8.58399C87.8649 8.848 87.7449 9.184 87.7449 9.592V10.024C87.7449 10.432 87.8649 10.768 88.1049 11.032C88.3449 11.296 88.7289 11.428 89.2569 11.428Z" fill="#1F1F1F"/>
<path d="M101.724 14.308H101.616C101.412 14.836 101.088 15.286 100.644 15.658C100.212 16.03 99.6238 16.216 98.8798 16.216C98.4358 16.216 98.0278 16.144 97.6558 16C97.2838 15.844 96.9658 15.616 96.7018 15.316C96.4378 15.016 96.2278 14.65 96.0718 14.218C95.9278 13.786 95.8558 13.288 95.8558 12.724V6.712H98.5198V12.364C98.5198 13.564 99.0418 14.164 100.086 14.164C100.29 14.164 100.488 14.14 100.68 14.092C100.884 14.032 101.058 13.948 101.202 13.84C101.358 13.72 101.484 13.576 101.58 13.408C101.676 13.24 101.724 13.042 101.724 12.814V6.712H104.388V16H101.724V14.308Z" fill="#1F1F1F"/>
<path d="M106.775 13.93H109.619V4.75H106.775V2.68H112.283V13.93H115.127V16H106.775V13.93Z" fill="#1F1F1F"/>
<path d="M121.744 16.216C121.024 16.216 120.376 16.108 119.8 15.892C119.224 15.664 118.732 15.34 118.324 14.92C117.928 14.5 117.622 13.99 117.406 13.39C117.19 12.79 117.082 12.112 117.082 11.356C117.082 10.6 117.19 9.92199 117.406 9.32199C117.622 8.72199 117.928 8.212 118.324 7.792C118.732 7.372 119.224 7.054 119.8 6.838C120.376 6.61 121.024 6.496 121.744 6.496C122.464 6.496 123.112 6.61 123.688 6.838C124.264 7.054 124.75 7.372 125.146 7.792C125.554 8.212 125.866 8.72199 126.082 9.32199C126.298 9.92199 126.406 10.6 126.406 11.356C126.406 12.112 126.298 12.79 126.082 13.39C125.866 13.99 125.554 14.5 125.146 14.92C124.75 15.34 124.264 15.664 123.688 15.892C123.112 16.108 122.464 16.216 121.744 16.216ZM121.744 14.236C122.344 14.236 122.812 14.05 123.148 13.678C123.484 13.306 123.652 12.778 123.652 12.094V10.618C123.652 9.934 123.484 9.40599 123.148 9.03399C122.812 8.66199 122.344 8.476 121.744 8.476C121.144 8.476 120.676 8.66199 120.34 9.03399C120.004 9.40599 119.836 9.934 119.836 10.618V12.094C119.836 12.778 120.004 13.306 120.34 13.678C120.676 14.05 121.144 14.236 121.744 14.236Z" fill="#1F1F1F"/>
</svg>
