<svg width="129" height="24" viewBox="0 0 129 24" fill="none" xmlns="http://www.w3.org/2000/svg">
<path d="M7.14145 5.93611C8.40769 3.72179 9.0408 2.61463 9.86738 2.24307C10.5883 1.91898 11.4117 1.91898 12.1326 2.24307C12.9592 2.61463 13.5923 3.72179 14.8586 5.9361L20.186 15.2524C21.4522 17.4667 22.0853 18.5739 21.9908 19.4824C21.9083 20.2748 21.4966 20.9947 20.8581 21.4631C20.1261 22 18.8599 22 16.3274 22L5.67257 22C3.1401 22 1.87386 22 1.14187 21.463C0.503393 20.9947 0.0917357 20.2748 0.00924199 19.4824C-0.0853346 18.5739 0.547784 17.4667 1.81402 15.2524L7.14145 5.93611Z" fill="#9E9E9E"/>
<path d="M9.81684 5.93611C11.0255 3.72179 11.6299 2.61463 12.4189 2.24307C13.1071 1.91898 13.8929 1.91898 14.5811 2.24307C15.3701 2.61463 15.9745 3.72179 17.1832 5.9361L22.2684 15.2524C23.4771 17.4667 24.0815 18.5739 23.9912 19.4824C23.9124 20.2748 23.5195 20.9947 22.91 21.4631C22.2113 22 21.0026 22 18.5853 22L8.41473 22C5.99737 22 4.78869 22 4.08997 21.463C3.48051 20.9947 3.08757 20.2748 3.00882 19.4824C2.91854 18.5739 3.52288 17.4667 4.73156 15.2524L9.81684 5.93611Z" fill="#6B6B6B"/>
<path d="M13.1414 5.93611C14.4077 3.72179 15.0408 2.61463 15.8674 2.24307C16.5883 1.91898 17.4117 1.91898 18.1326 2.24307C18.9592 2.61463 19.5923 3.72179 20.8586 5.9361L26.186 15.2524C27.4522 17.4667 28.0853 18.5739 27.9908 19.4824C27.9083 20.2748 27.4966 20.9947 26.8581 21.4631C26.1261 22 24.8599 22 22.3274 22L11.6726 22C9.1401 22 7.87386 22 7.14187 21.463C6.50339 20.9947 6.09174 20.2748 6.00924 19.4824C5.91467 18.5739 6.54778 17.4667 7.81402 15.2524L13.1414 5.93611Z" fill="#1F1F1F"/>
<path d="M37.12 18C36.16 18 35.446 17.748 34.978 17.244C34.51 16.74 34.276 16.098 34.276 15.318V10.782H31.756V8.712H33.394C33.79 8.712 34.072 8.634 34.24 8.478C34.408 8.322 34.492 8.034 34.492 7.614V5.436H36.94V8.712H40.558V10.782H36.94V15.93H40.558V18H37.12ZM43.125 15.93H45.267V10.782H43.125V8.712H47.931V11.34H48.057C48.141 11.004 48.255 10.68 48.399 10.368C48.555 10.044 48.747 9.762 48.975 9.522C49.215 9.27 49.503 9.072 49.839 8.928C50.175 8.784 50.571 8.712 51.027 8.712H51.909V11.16H49.929C49.269 11.16 48.771 11.358 48.435 11.754C48.099 12.138 47.931 12.612 47.931 13.176V15.93H50.991V18H43.125V15.93ZM58.5619 7.524C57.9619 7.524 57.5419 7.404 57.3019 7.164C57.0739 6.912 56.9599 6.612 56.9599 6.264V5.742C56.9599 5.382 57.0739 5.082 57.3019 4.842C57.5419 4.602 57.9619 4.482 58.5619 4.482C59.1619 4.482 59.5759 4.602 59.8039 4.842C60.0439 5.082 60.1639 5.382 60.1639 5.742V6.264C60.1639 6.612 60.0439 6.912 59.8039 7.164C59.5759 7.404 59.1619 7.524 58.5619 7.524ZM54.2779 15.93H57.2299V10.782H54.2779V8.712H59.8939V15.93H62.6299V18H54.2779V15.93ZM72.1449 18C71.5929 18 71.1489 17.862 70.8129 17.586C70.4769 17.298 70.2789 16.89 70.2189 16.362H70.1289C69.9609 16.974 69.6249 17.436 69.1209 17.748C68.6289 18.06 68.0229 18.216 67.3029 18.216C66.4029 18.216 65.6769 17.976 65.1249 17.496C64.5849 17.004 64.3149 16.32 64.3149 15.444C64.3149 14.472 64.6689 13.752 65.3769 13.284C66.0849 12.816 67.1229 12.582 68.4909 12.582H69.9849V12.114C69.9849 11.562 69.8529 11.148 69.5889 10.872C69.3369 10.584 68.9049 10.44 68.2929 10.44C67.7289 10.44 67.2729 10.548 66.9249 10.764C66.5769 10.98 66.2769 11.262 66.0249 11.61L64.5669 10.314C64.8789 9.786 65.3649 9.354 66.0249 9.018C66.6969 8.67 67.5549 8.496 68.5989 8.496C69.8709 8.496 70.8609 8.79 71.5689 9.378C72.2889 9.954 72.6489 10.83 72.6489 12.006V16.074H73.6749V18H72.1449ZM68.3109 16.47C68.7789 16.47 69.1749 16.356 69.4989 16.128C69.8229 15.9 69.9849 15.57 69.9849 15.138V14.022H68.5629C67.4709 14.022 66.9249 14.388 66.9249 15.12V15.48C66.9249 15.804 67.0509 16.05 67.3029 16.218C67.5549 16.386 67.8909 16.47 68.3109 16.47ZM69.7689 3.852L72.1449 6.714L70.7949 7.758L68.6169 5.688L66.4389 7.758L65.1609 6.714L67.5369 3.852H69.7689ZM75.3419 18V8.712H78.0059V10.404H78.1139C78.2219 10.14 78.3539 9.894 78.5099 9.666C78.6659 9.438 78.8519 9.24 79.0679 9.072C79.2959 8.892 79.5539 8.754 79.8419 8.658C80.1419 8.55 80.4779 8.496 80.8499 8.496C81.2939 8.496 81.7019 8.574 82.0739 8.73C82.4459 8.874 82.7639 9.096 83.0279 9.396C83.2919 9.696 83.4959 10.062 83.6399 10.494C83.7959 10.926 83.8739 11.424 83.8739 11.988V18H81.2099V12.348C81.2099 11.148 80.6879 10.548 79.6439 10.548C79.4399 10.548 79.2359 10.578 79.0319 10.638C78.8399 10.686 78.6659 10.77 78.5099 10.89C78.3539 10.998 78.2279 11.136 78.1319 11.304C78.0479 11.472 78.0059 11.67 78.0059 11.898V18H75.3419ZM95.4588 18.936C95.4588 19.92 95.0448 20.646 94.2168 21.114C93.3888 21.582 92.0868 21.816 90.3108 21.816C89.4228 21.816 88.6908 21.762 88.1148 21.654C87.5388 21.558 87.0768 21.414 86.7288 21.222C86.3928 21.03 86.1528 20.802 86.0088 20.538C85.8768 20.274 85.8108 19.986 85.8108 19.674C85.8108 19.146 85.9668 18.744 86.2788 18.468C86.5908 18.204 87.0288 18 87.5928 17.856V17.748C87.1968 17.628 86.8788 17.46 86.6388 17.244C86.4108 17.016 86.2968 16.698 86.2968 16.29C86.2968 15.834 86.4468 15.498 86.7468 15.282C87.0588 15.066 87.4668 14.898 87.9708 14.778V14.67C87.4188 14.406 86.9868 14.034 86.6748 13.554C86.3748 13.074 86.2248 12.492 86.2248 11.808C86.2248 11.268 86.3208 10.794 86.5128 10.386C86.7048 9.966 86.9748 9.618 87.3228 9.342C87.6828 9.066 88.1088 8.856 88.6008 8.712C89.0928 8.568 89.6448 8.496 90.2568 8.496C90.8448 8.496 91.3908 8.562 91.8948 8.694V8.19C91.8948 7.83 92.0208 7.53 92.2728 7.29C92.5248 7.05 92.8728 6.93 93.3168 6.93H94.9548V8.874H92.7228V9.036C93.2268 9.3 93.6168 9.666 93.8928 10.134C94.1808 10.59 94.3248 11.148 94.3248 11.808C94.3248 12.348 94.2288 12.822 94.0368 13.23C93.8448 13.638 93.5688 13.986 93.2088 14.274C92.8488 14.55 92.4168 14.76 91.9128 14.904C91.4208 15.048 90.8688 15.12 90.2568 15.12C89.9808 15.12 89.7168 15.108 89.4648 15.084C89.2128 15.048 88.9728 15 88.7448 14.94C88.6128 15.012 88.4988 15.102 88.4028 15.21C88.3188 15.318 88.2768 15.456 88.2768 15.624C88.2768 15.768 88.3128 15.882 88.3848 15.966C88.4568 16.05 88.5528 16.116 88.6728 16.164C88.8048 16.2 88.9548 16.224 89.1228 16.236C89.2908 16.248 89.4648 16.254 89.6448 16.254H91.7688C92.4288 16.254 92.9928 16.32 93.4608 16.452C93.9288 16.584 94.3128 16.77 94.6128 17.01C94.9128 17.25 95.1288 17.532 95.2608 17.856C95.3928 18.18 95.4588 18.54 95.4588 18.936ZM92.9388 19.134C92.9388 18.894 92.8428 18.702 92.6508 18.558C92.4588 18.426 92.0928 18.36 91.5528 18.36H88.3668C88.1268 18.564 88.0068 18.816 88.0068 19.116C88.0068 19.404 88.1268 19.638 88.3668 19.818C88.6188 20.01 89.0388 20.106 89.6268 20.106H91.1928C91.8048 20.106 92.2488 20.022 92.5248 19.854C92.8008 19.686 92.9388 19.446 92.9388 19.134ZM90.2568 13.428C90.7968 13.428 91.1868 13.296 91.4268 13.032C91.6788 12.768 91.8048 12.432 91.8048 12.024V11.592C91.8048 11.184 91.6788 10.848 91.4268 10.584C91.1868 10.32 90.7968 10.188 90.2568 10.188C89.7288 10.188 89.3448 10.32 89.1048 10.584C88.8648 10.848 88.7448 11.184 88.7448 11.592V12.024C88.7448 12.432 88.8648 12.768 89.1048 13.032C89.3448 13.296 89.7288 13.428 90.2568 13.428ZM102.724 16.308H102.616C102.412 16.836 102.088 17.286 101.644 17.658C101.212 18.03 100.624 18.216 99.8798 18.216C99.4358 18.216 99.0278 18.144 98.6558 18C98.2838 17.844 97.9658 17.616 97.7018 17.316C97.4378 17.016 97.2278 16.65 97.0718 16.218C96.9278 15.786 96.8558 15.288 96.8558 14.724V8.712H99.5198V14.364C99.5198 15.564 100.042 16.164 101.086 16.164C101.29 16.164 101.488 16.14 101.68 16.092C101.884 16.032 102.058 15.948 102.202 15.84C102.358 15.72 102.484 15.576 102.58 15.408C102.676 15.24 102.724 15.042 102.724 14.814V8.712H105.388V18H102.724V16.308ZM107.775 15.93H110.619V6.75H107.775V4.68H113.283V15.93H116.127V18H107.775V15.93ZM122.744 18.216C122.024 18.216 121.376 18.108 120.8 17.892C120.224 17.664 119.732 17.34 119.324 16.92C118.928 16.5 118.622 15.99 118.406 15.39C118.19 14.79 118.082 14.112 118.082 13.356C118.082 12.6 118.19 11.922 118.406 11.322C118.622 10.722 118.928 10.212 119.324 9.792C119.732 9.372 120.224 9.054 120.8 8.838C121.376 8.61 122.024 8.496 122.744 8.496C123.464 8.496 124.112 8.61 124.688 8.838C125.264 9.054 125.75 9.372 126.146 9.792C126.554 10.212 126.866 10.722 127.082 11.322C127.298 11.922 127.406 12.6 127.406 13.356C127.406 14.112 127.298 14.79 127.082 15.39C126.866 15.99 126.554 16.5 126.146 16.92C125.75 17.34 125.264 17.664 124.688 17.892C124.112 18.108 123.464 18.216 122.744 18.216ZM122.744 16.236C123.344 16.236 123.812 16.05 124.148 15.678C124.484 15.306 124.652 14.778 124.652 14.094V12.618C124.652 11.934 124.484 11.406 124.148 11.034C123.812 10.662 123.344 10.476 122.744 10.476C122.144 10.476 121.676 10.662 121.34 11.034C121.004 11.406 120.836 11.934 120.836 12.618V14.094C120.836 14.778 121.004 15.306 121.34 15.678C121.676 16.05 122.144 16.236 122.744 16.236Z" fill="#1F1F1F"/>
</svg>
